<?xml version="1.0" encoding="UTF-8"?>
<svg width="100px" height="100px" viewBox="0 0 100 100" version="1.1" xmlns="http://www.w3.org/2000/svg" xmlns:xlink="http://www.w3.org/1999/xlink">
    <title>v_upload_doc</title>
    <g id="v_upload_doc" stroke="none" stroke-width="1" fill="none" fill-rule="evenodd">
        <g id="simple-line-icons:cloud-upload" fill-rule="nonzero">
            <g id="Icon" transform="translate(0.000000, 6.250000)" fill="#00A2FF">
                <path d="M74.5117188,19.140625 C72.2981771,13.2161458 68.8313802,8.59375 64.1113281,5.2734375 C59.391276,1.953125 53.5807292,0.29296875 46.6796875,0.29296875 C40.7552083,0.29296875 35.4329427,1.64388021 30.7128906,4.34570312 C25.9928385,7.04752604 22.281901,10.7259115 19.5800781,15.3808594 C16.8782552,20.0358073 15.3320312,25.2604167 14.9414062,31.0546875 C10.5794271,32.4869792 6.99869792,35.2050781 4.19921875,39.2089844 C1.39973958,43.2128906 0,47.7213542 0,52.734375 C0,58.8541667 2.08333333,64.1601562 6.25,68.6523438 C10.4166667,73.1445312 15.3645833,75.390625 21.09375,75.390625 L30.078125,75.390625 C30.9895833,75.390625 31.7382812,75.0813802 32.3242188,74.4628906 C32.9101562,73.844401 33.203125,73.1119792 33.203125,72.265625 C33.203125,71.8098958 33.1217448,71.4029948 32.9589844,71.0449219 C32.796224,70.686849 32.5846354,70.3613281 32.3242188,70.0683594 C32.0638021,69.7753906 31.7382812,69.547526 31.3476562,69.3847656 C30.9570312,69.2220052 30.5338542,69.140625 30.078125,69.140625 L21.09375,69.140625 C17.0572917,69.140625 13.5579427,67.5130208 10.5957031,64.2578125 C7.63346354,61.0026042 6.15234375,57.1614583 6.15234375,52.734375 C6.15234375,48.828125 7.35677083,45.3125 9.765625,42.1875 C12.1744792,39.0625 15.1041667,37.2070312 18.5546875,36.6210938 L21.3867188,36.1328125 L21.1914062,33.203125 L21.09375,33.203125 C21.09375,28.125 22.1354167,23.5677083 24.21875,19.53125 C26.3020833,15.4947917 29.296875,12.3209635 33.203125,10.0097656 C37.109375,7.69856771 41.6015625,6.54296875 46.6796875,6.54296875 C58.3333333,6.54296875 65.8528646,12.0442708 69.2382812,23.046875 L69.921875,25.1953125 L72.1679688,25.2929688 C78.0273438,25.3580729 83.1217448,27.4739583 87.4511719,31.640625 C91.780599,35.8072917 93.9453125,40.7877604 93.9453125,46.5820312 C93.9453125,50.2278646 93.2291667,53.7597656 91.796875,57.1777344 C90.3645833,60.5957031 88.264974,63.4440104 85.4980469,65.7226562 C82.7311198,68.0013021 79.6223958,69.140625 76.171875,69.140625 L69.0429688,69.140625 C68.1966146,69.140625 67.4641927,69.4498698 66.8457031,70.0683594 C66.2272135,70.686849 65.9179688,71.4192708 65.9179688,72.265625 C65.9179688,73.1119792 66.2272135,73.844401 66.8457031,74.4628906 C67.4641927,75.0813802 68.1966146,75.390625 69.0429688,75.390625 L76.171875,75.390625 C79.9479167,75.2604167 83.3821615,74.3326823 86.4746094,72.6074219 C89.5670573,70.8821615 92.0735677,68.6360677 93.9941406,65.8691406 C95.9147135,63.1022135 97.3958333,60.0585938 98.4375,56.7382812 C99.4791667,53.4179688 100,50.0325521 100,46.5820312 C100,39.4856771 97.5423177,33.3333333 92.6269531,28.125 C87.7115885,22.9166667 81.6731771,19.921875 74.5117188,19.140625 Z M52.34375,44.0429688 L52.34375,43.9453125 L51.5625,43.1640625 C51.1067708,42.7083333 50.5696615,42.4804688 49.9511719,42.4804688 C49.3326823,42.4804688 48.7955729,42.7083333 48.3398438,43.1640625 L47.5585938,43.9453125 L47.5585938,44.0429688 L36.2304688,56.5429688 C35.7747396,56.9986979 35.546875,57.5358073 35.546875,58.1542969 C35.546875,58.7727865 35.7747396,59.3424479 36.2304688,59.8632812 L37.0117188,60.3515625 C37.4674479,60.8072917 37.9882812,60.9863281 38.5742188,60.8886719 C39.1601562,60.7910156 39.7135417,60.5143229 40.234375,60.0585938 L46.875,52.6367188 L46.875,84.0820312 C46.875,84.9934896 47.1679688,85.7421875 47.7539062,86.328125 C48.3398438,86.9140625 49.0722656,87.2070312 49.9511719,87.2070312 C50.8300781,87.2070312 51.578776,86.9140625 52.1972656,86.328125 C52.8157552,85.7421875 53.125,84.9934896 53.125,84.0820312 L53.125,52.6367188 L59.9609375,60.2539062 C60.4166667,60.7096354 60.9375,60.9863281 61.5234375,61.0839844 C62.109375,61.1816406 62.6302083,61.0026042 63.0859375,60.546875 L63.8671875,60.0585938 C64.3229167,59.5377604 64.5507812,58.968099 64.5507812,58.3496094 C64.5507812,57.7311198 64.3229167,57.1940104 63.8671875,56.7382812 L52.34375,44.0429688 Z" id="Icon-Shape"></path>
            </g>
            <rect id="ViewBox" x="0" y="0" width="100" height="100"></rect>
        </g>
    </g>
</svg>